<svg width="451.42902" height="451.42902" xmlns="http://www.w3.org/2000/svg">
 <g>
  <rect fill="none" id="canvas_background" height="402" width="582" y="-1" x="-1"/>
 </g>
 <g>
  <g id="layer1">
   <g id="layer1-6" transform="matrix(1.3580428,0,0,1.3580428,2065.078,44.928302) "/>
   <path fill="#dd3333" fill-rule="nonzero" id="path3866" d="m451.429065,225.714517a225.714512,225.714512 0 0 1 -225.71457,225.7145a225.714512,225.714512 0 0 1 -225.714465,-225.7145a225.714512,225.714512 0 0 1 225.714465,-225.714512a225.714512,225.714512 0 0 1 225.71457,225.714512z"/>
   <g font-style="normal" font-weight="bold" font-size="144px" font-family="'College Slab'" fill="#ffffff" id="text3890" transform="matrix(-3.1435529,0,0,-3.1435529,10926.161,-138.49162) ">
    <path fill="#ffffff" id="path3089" d="m3412.862106,-136.3984l0,73.872l-17.856,0l0,-73.872l17.856,0"/>
    <circle fill="#ffffff" fill-rule="nonzero" r="35.067654" cy="293.648034" cx="3027.328187" transform="matrix(0.3181114,0,0,0.3181114,2440.9065,-251.44719) " id="path3085"/>
   </g>
  </g>
 </g>
</svg>