<?xml version="1.0" encoding="iso-8859-1"?>
<!-- Generator: Adobe Illustrator 19.0.0, SVG Export Plug-In . SVG Version: 6.00 Build 0)  -->
<svg version="1.1" id="Capa_1" xmlns="http://www.w3.org/2000/svg" xmlns:xlink="http://www.w3.org/1999/xlink" x="0px" y="0px"
	 viewBox="0 0 512 512" style="enable-background:new 0 0 512 512;fill:rgb(244, 93, 34);" xml:space="preserve">
<g>
	<g>
		<path d="M256,60C147.925,60,60,147.925,60,256s87.925,196,196,196s196-87.925,196-196S364.075,60,256,60z M256,422
			c-91.533,0-166-74.467-166-166S164.467,90,256,90s166,74.467,166,166S347.533,422,256,422z"/>
	</g>
</g>
<g>
	<g>
		<rect x="241" y="362" width="30" height="30"/>
	</g>
</g>
<g>
	<g>
		<path d="M256,120c-50.178,0-91,40.822-91,91h30c0-33.636,27.364-61,61-61s61,27.364,61,61c0,18.505-8.274,35.805-22.747,47.5
			L241,301.871V332h30v-15.871l42.154-34.331C334.663,264.414,347,238.609,347,211C347,160.822,306.178,120,256,120z"/>
	</g>
</g>
<g>
	<g>
		<path d="M437.02,74.98C388.667,26.629,324.38,0,256,0S123.333,26.629,74.98,74.98C26.629,123.333,0,187.62,0,256
			c0,46.687,12.625,92.155,36.569,131.909l-20.758,96.006l12.273,12.273l96.006-20.758C163.844,499.375,209.313,512,256,512
			c68.38,0,132.667-26.629,181.02-74.98C485.371,388.667,512,324.38,512,256S485.371,123.333,437.02,74.98z M256,482
			c-43.064,0-84.944-12.16-121.112-35.166l-5.198-3.307l-78.104,16.887l16.887-78.103l-3.307-5.199C42.16,340.943,30,299.063,30,256
			C30,131.383,131.383,30,256,30s226,101.383,226,226S380.617,482,256,482z"/>
	</g>
</g>
<g>
</g>
<g>
</g>
<g>
</g>
<g>
</g>
<g>
</g>
<g>
</g>
<g>
</g>
<g>
</g>
<g>
</g>
<g>
</g>
<g>
</g>
<g>
</g>
<g>
</g>
<g>
</g>
<g>
</g>
</svg>
